<?xml version="1.0" encoding="UTF-8"?>
<svg width="49px" height="49px" viewBox="0 0 49 49" version="1.1" xmlns="http://www.w3.org/2000/svg" xmlns:xlink="http://www.w3.org/1999/xlink">
    <defs></defs>
    <g  fill="#CE0D0C">
        <path d="M43.46,16.691 C41.368,11.616 37.298,7.565 32.21,5.499 C32.23,5.334 32.241,5.167 32.241,5 C32.241,2.791 30.45,1 28.241,1 L15,1 L16.691,5.54 C11.617,7.632 7.565,11.702 5.499,16.79 C5.334,16.77 5.167,16.759 5,16.759 C2.791,16.759 1,18.55 1,20.759 L1,34 L5.54,32.309 C7.632,37.383 11.701,41.434 16.789,43.5 C16.561,45.301 17.588,47.087 19.362,47.748 C19.809,47.915 20.282,48 20.759,48 L34,48 L32.309,43.46 C37.383,41.368 41.434,37.298 43.5,32.211 C45.301,32.439 47.088,31.412 47.748,29.638 C47.915,29.191 48,28.718 48,28.241 L48,15 L43.46,16.691 Z M24.5,39 C16.492,39 10,32.508 10,24.5 C10,16.492 16.492,10 24.5,10 C32.508,10 39,16.492 39,24.5 C39,32.508 32.508,39 24.5,39 Z" id="b" fill-opacity="0.300000012" opacity="0.799999952"></path>
        <path d="M18.5,30 C17.119,30 16,28.881 16,27.5 C16,26.119 17.119,25 18.5,25 C19.881,25 21,26.119 21,27.5 C21,28.881 19.881,30 18.5,30 M18.5,23 C16.015,23 14,25.015 14,27.5 C14,29.985 16.015,32 18.5,32 C20.985,32 23,29.985 23,27.5 C23,25.015 20.985,23 18.5,23 M30.5,30 C29.119,30 28,28.881 28,27.5 C28,26.119 29.119,25 30.5,25 C31.881,25 33,26.119 33,27.5 C33,28.881 31.881,30 30.5,30 M30.5,23 C28.015,23 26,25.015 26,27.5 C26,29.985 28.015,32 30.5,32 C32.985,32 35,29.985 35,27.5 C35,25.015 32.985,23 30.5,23 M47,28.2412 C47,28.5992 46.936,28.9532 46.811,29.2882 C46.323,30.6002 44.996,31.3922 43.625,31.2192 L42.863,31.1222 L42.573,31.8352 C40.609,36.6722 36.755,40.5452 31.928,42.5352 L31.035,42.9042 L32.561,47.0002 L20.759,47.0002 C20.401,47.0002 20.046,46.9362 19.712,46.8112 C18.399,46.3222 17.607,44.9952 17.781,43.6262 L17.877,42.8632 L17.165,42.5732 C12.328,40.6092 8.455,36.7562 6.464,31.9282 L6.096,31.0342 L2,32.5602 L2,20.7592 C2,19.1022 3.343,17.7592 5,17.7592 C5.122,17.7592 5.249,17.7672 5.379,17.7832 L6.138,17.8752 L6.426,17.1662 C8.39,12.3282 12.244,8.4552 17.072,6.4642 L17.965,6.0962 L16.439,2.0002 L28.241,2.0002 C29.897,2.0002 31.241,3.3432 31.241,5.0002 C31.241,5.1222 31.233,5.2482 31.217,5.3792 L31.125,6.1372 L31.834,6.4262 C36.672,8.3902 40.545,12.2432 42.536,17.0722 L42.904,17.9652 L47,16.4392 L47,28.2412 Z M43.996,15.4242 C41.807,10.7292 37.975,6.9592 33.239,4.8502 C33.16,2.1582 30.952,0.0002 28.241,0.0002 L13.561,0.0002 L15.424,5.0042 C10.73,7.1932 6.959,11.0262 4.85,15.7612 C2.158,15.8402 0,18.0482 0,20.7592 L0,35.4392 L5.004,33.5752 C7.193,38.2692 11.024,42.0402 15.759,44.1482 C15.818,46.1442 17.075,47.9632 19.013,48.6852 C19.57,48.8932 20.162,49.0002 20.759,49.0002 L35.439,49.0002 L33.576,43.9962 C38.269,41.8072 42.04,37.9752 44.148,33.2412 C46.145,33.1812 47.964,31.9252 48.685,29.9872 C48.894,29.4292 49,28.8382 49,28.2412 L49,13.5602 L43.996,15.4242 Z M24.5,38 C17.044,38 11,31.956 11,24.5 C11,17.044 17.044,11 24.5,11 C31.956,11 38,17.044 38,24.5 C38,31.956 31.956,38 24.5,38 M24.5,9 C15.939,9 9,15.939 9,24.5 C9,33.06 15.939,40 24.5,40 C33.061,40 40,33.06 40,24.5 C40,15.939 33.061,9 24.5,9 M24.5,21 C23.119,21 22,19.881 22,18.5 C22,17.119 23.119,16 24.5,16 C25.881,16 27,17.119 27,18.5 C27,19.881 25.881,21 24.5,21 M29,18.5 C29,16.015 26.985,14 24.5,14 C22.015,14 20,16.015 20,18.5 C20,20.985 22.015,23 24.5,23 C26.985,23 29,20.985 29,18.5" id="g"></path>
    </g>
</svg>