<?xml version="1.0" encoding="UTF-8"?>
<svg width="48px" height="35px" viewBox="0 0 48 35" version="1.1" xmlns="http://www.w3.org/2000/svg" xmlns:xlink="http://www.w3.org/1999/xlink">
    <defs></defs>
    <g transform="translate(-1353.000000, -143.000000)" fill="#CE0D0C" opacity="0.8">
        <path d="M1373.135,137 L1367.344,145.443 L1361.366,141.752 L1360.302,143.466 L1392.13,163.121 L1393.192,161.407 L1388.377,158.433 L1394.001,150.234 L1392.332,149.095 L1386.657,157.37 L1382.176,154.603 L1387.938,146.202 L1386.27,145.063 L1380.457,153.541 L1375.975,150.774 L1381.876,142.17 L1380.208,141.032 L1374.255,149.712 L1369.064,146.506 L1374.803,138.139 L1373.135,137 Z M1360.302,151.529 L1392.13,171.185 L1393.192,169.47 L1361.366,149.815 L1360.302,151.529 Z M1360.302,159.593 L1365.716,162.936 L1360,171.27 L1361.668,172.408 L1367.436,163.999 L1371.32,166.397 L1365.557,174.797 L1367.225,175.937 L1373.04,167.459 L1377.521,170.226 L1371.619,178.83 L1373.287,179.968 L1379.241,171.288 L1383.722,174.056 L1377.682,182.861 L1379.35,184 L1385.442,175.118 L1392.13,179.248 L1393.192,177.534 L1361.366,157.879 L1360.302,159.593 Z" id="2" transform="translate(1377.000000, 160.500000) rotate(-90.000000) translate(-1377.000000, -160.500000) "></path>
    </g>
</svg>