<?xml version="1.0" encoding="UTF-8"?>
<svg width="43px" height="27px" viewBox="0 0 43 27" version="1.1" xmlns="http://www.w3.org/2000/svg" xmlns:xlink="http://www.w3.org/1999/xlink">
    <defs></defs>
    <g transform="translate(-1356.000000, -71.000000)" fill="#CE0D0C" opacity="0.8">
        <path d="M1378.934,79 L1378.934,77 L1391.833,77 L1391.833,79 L1378.934,79 Z M1388.967,92 L1388.967,90 L1396.133,90 L1396.133,92 L1388.967,92 Z M1366.033,89 L1366.033,87 L1388.967,87 L1388.967,89 L1366.033,89 Z M1356,79 L1356,77 L1377.5,77 L1377.5,79 L1356,79 Z M1363.167,73 L1363.167,71 L1391.833,71 L1391.833,73 L1363.167,73 Z M1370.333,82 L1370.333,80 L1388.967,80 L1388.967,82 L1370.333,82 Z M1371.766,95 L1371.766,92.999 L1399,92.999 L1399,95 L1371.766,95 Z M1378.934,85 L1378.934,82.999 L1399,82.999 L1399,85 L1378.934,85 Z M1367.467,85 L1367.467,83 L1376.067,83 L1376.067,85 L1367.467,85 Z M1358.867,76 L1358.867,73.999 L1399,73.999 L1399,76 L1358.867,76 Z M1356,92 L1356,90 L1384.667,90 L1384.667,92 L1356,92 Z M1366.033,98 L1366.033,96 L1387.533,96 L1387.533,98 L1366.033,98 Z" id="1"></path>
    </g>
</svg>