<?xml version="1.0" encoding="UTF-8"?>
<svg width="883px" height="35px" viewBox="0 0 883 35" version="1.1" xmlns="http://www.w3.org/2000/svg" xmlns:xlink="http://www.w3.org/1999/xlink">
    <!-- Generator: Sketch 49.1 (51147) - http://www.bohemiancoding.com/sketch -->
    <title>Group Copy</title>
    <desc>Created with Sketch.</desc>
    <defs></defs>
    <g id="Page-1" stroke="none" stroke-width="1" fill="none" fill-rule="evenodd" fill-opacity="0.300000012">
        <g id="view" transform="translate(-279.000000, -983.000000)" fill="#CE0D0C" stroke="#CE0D0C" stroke-width="2">
            <g id="Group-Copy" transform="translate(720.500000, 999.000000) scale(1, -1) translate(-720.500000, -999.000000) translate(288.000000, 984.000000)">
                <path d="M171,29.2140162 L56.5574535,29.2140162 C55.3829471,29.2140162 54.2176233,29.0506682 53.114907,28.7314608 L0,0 L58.3329904,17.3705416 L161,17.3705416 L171,29.2140162 Z" id="Rectangle-4" fill-rule="nonzero"></path>
                <path d="M865,29.2140162 L750.557454,29.2140162 C749.382947,29.2140162 748.217623,29.0506682 747.114907,28.7314608 L694,0 L752.33299,17.3705416 L855,17.3705416 L865,29.2140162 Z" id="Rectangle-4-Copy-3" fill-rule="nonzero" transform="translate(779.500000, 14.607008) scale(-1, 1) translate(-779.500000, -14.607008) "></path>
                <polygon id="Rectangle-5" points="171 17.3684211 239 17.3684211 249 29.2105263 181 29.2105263"></polygon>
                <polygon id="Rectangle-5-Copy-2" points="327 17.3684211 395 17.3684211 405 29.2105263 337 29.2105263"></polygon>
                <polygon id="Rectangle-5-Copy-6" points="405 17.3684211 460 17.3684211 450 29.2105263 415 29.2105263"></polygon>
                <polygon id="Rectangle-5-Copy-3" transform="translate(499.000000, 23.289474) scale(1, -1) translate(-499.000000, -23.289474) " points="460 17.3684211 528 17.3684211 538 29.2105263 470 29.2105263"></polygon>
                <polygon id="Rectangle-5-Copy" points="249 17.3684211 317 17.3684211 327 29.2105263 259 29.2105263"></polygon>
                <polygon id="Rectangle-5-Copy-4" transform="translate(655.000000, 23.289474) scale(-1, 1) translate(-655.000000, -23.289474) " points="616 17.3684211 684 17.3684211 694 29.2105263 626 29.2105263"></polygon>
                <polygon id="Rectangle-5-Copy-5" transform="translate(577.000000, 23.289474) scale(-1, 1) translate(-577.000000, -23.289474) " points="538 17.3684211 606 17.3684211 616 29.2105263 548 29.2105263"></polygon>
            </g>
        </g>
    </g>
</svg>