<svg width="49" height="49" xmlns="http://www.w3.org/2000/svg"><g fill="#CE0D0C"><path d="M43.46 16.691A20.565 20.565 0 0 0 32.21 5.499 4 4 0 0 0 28.241 1H15l1.691 4.54A20.568 20.568 0 0 0 5.499 16.79 4 4 0 0 0 1 20.759V34l4.54-1.691A20.564 20.564 0 0 0 16.789 43.5a4.002 4.002 0 0 0 3.97 4.5H34l-1.691-4.54A20.568 20.568 0 0 0 43.5 32.211a4.001 4.001 0 0 0 4.5-3.97V15l-4.54 1.691zM24.5 39C16.492 39 10 32.508 10 24.5S16.492 10 24.5 10 39 16.492 39 24.5 32.508 39 24.5 39z" fill-opacity=".3" opacity=".8"/><path d="M18.5 30a2.5 2.5 0 1 1 0-5 2.5 2.5 0 0 1 0 5m0-7a4.5 4.5 0 1 0 0 9 4.5 4.5 0 0 0 0-9m12 7a2.5 2.5 0 1 1 0-5 2.5 2.5 0 0 1 0 5m0-7a4.5 4.5 0 1 0 0 9 4.5 4.5 0 0 0 0-9M47 28.241a3.002 3.002 0 0 1-3.375 2.978l-.762-.097-.29.713a19.564 19.564 0 0 1-10.645 10.7l-.893.37L32.561 47H20.759a3 3 0 0 1-2.978-3.374l.096-.763-.712-.29A19.566 19.566 0 0 1 6.464 31.928l-.368-.894L2 32.56v-11.8a3 3 0 0 1 3.379-2.977l.759.092.288-.709A19.566 19.566 0 0 1 17.072 6.464l.893-.368L16.439 2h11.802a3 3 0 0 1 2.976 3.38l-.092.757.709.29a19.563 19.563 0 0 1 10.702 10.645l.368.893L47 16.44v11.802zm-3.004-12.817A21.575 21.575 0 0 0 33.239 4.85 5 5 0 0 0 28.241 0h-14.68l1.863 5.004A21.583 21.583 0 0 0 4.85 15.761 5 5 0 0 0 0 20.76v14.68l5.004-1.864a21.573 21.573 0 0 0 10.755 10.573 5.004 5.004 0 0 0 5 4.852h14.68l-1.863-5.004a21.58 21.58 0 0 0 10.572-10.755 5.003 5.003 0 0 0 4.852-5v-14.68l-5.004 1.863zM24.5 38C17.044 38 11 31.956 11 24.5S17.044 11 24.5 11 38 17.044 38 24.5 31.956 38 24.5 38m0-29C15.939 9 9 15.939 9 24.5 9 33.06 15.939 40 24.5 40S40 33.06 40 24.5C40 15.939 33.061 9 24.5 9m0 12a2.5 2.5 0 1 1 0-5 2.5 2.5 0 0 1 0 5m4.5-2.5a4.5 4.5 0 1 0-9 0 4.5 4.5 0 0 0 9 0"/></g></svg>