<svg width="48" height="35" xmlns="http://www.w3.org/2000/svg"><path d="M.5 21.365l8.443 5.791-3.691 5.978 1.714 1.064L26.621 2.37l-1.714-1.062-2.974 4.815L13.734.499l-1.139 1.669 8.275 5.675-2.767 4.481-8.401-5.762L8.563 8.23l8.478 5.813-2.767 4.482-8.604-5.901-1.138 1.668 8.68 5.953-3.206 5.191-8.367-5.739L.5 21.365zm14.529 12.833L34.685 2.37 32.97 1.308 13.315 33.134l1.714 1.064zm8.064 0l3.343-5.414L34.77 34.5l1.138-1.668-8.409-5.768 2.398-3.884 8.4 5.763 1.14-1.668-8.478-5.815 2.767-4.481 8.604 5.902 1.138-1.668-8.68-5.954 2.768-4.481 8.805 6.04L47.5 15.15l-8.882-6.092 4.13-6.688-1.714-1.062-19.655 31.826 1.714 1.064z" fill="#CE0D0C" opacity=".8"/></svg>