<svg width="883" height="35" xmlns="http://www.w3.org/2000/svg" xmlns:xlink="http://www.w3.org/1999/xlink"><defs><path id="e" stroke-opacity="0" fill-opacity="0" d="M171 29.214H56.557a12.38 12.38 0 0 1-3.442-.483L0 0l58.333 17.37H161l10 11.844z"><animate attributeName="stroke-opacity" from="0" to="1" dur="0.2s" repeatCount="1" begin=".5" fill="freeze" id="a"/><animate attributeName="fill-opacity" from="0" to=".3" dur="0.2s" repeatCount="1" begin=".5" fill="freeze"/></path><path id="f" stroke-opacity="0" fill-opacity="0" d="M171 17.368h68l10 11.843h-68z"><animate attributeName="stroke-opacity" from="0" to="1" dur="0.2s" repeatCount="1" begin="a.end" fill="freeze" id="b"/><animate attributeName="fill-opacity" from="0" to=".3" dur="0.2s" repeatCount="1" begin="a.end" fill="freeze"/></path><path id="g" stroke-opacity="0" fill-opacity="0" d="M249 17.368h68l10 11.843h-68z"><animate attributeName="stroke-opacity" from="0" to="1" dur="0.2s" repeatCount="1" begin="b.end" fill="freeze" id="c"/><animate attributeName="fill-opacity" from="0" to=".3" dur="0.2s" repeatCount="1" begin="b.end" fill="freeze"/></path><path id="h" stroke-opacity="0" fill-opacity="0" d="M327 17.368h68l10 11.843h-68z"><animate attributeName="stroke-opacity" from="0" to="1" dur="0.2s" repeatCount="1" begin="c.end" fill="freeze" id="d"/><animate attributeName="fill-opacity" from="0" to=".3" dur="0.2s" repeatCount="1" begin="c.end" fill="freeze"/></path><path id="i" stroke-opacity="0" fill-opacity="0" d="M405 17.368h55l-10 11.843h-35z"><animate attributeName="stroke-opacity" from="0" to="1" dur="0.2s" repeatCount="1" begin="d.end" fill="freeze"/><animate attributeName="fill-opacity" from="0" to=".3" dur="0.2s" repeatCount="1" begin="d.end" fill="freeze"/></path></defs><g fill="#CE0D0C" stroke="#CE0D0C" stroke-width="2"><use xlink:href="#e"/><use xlink:href="#e" transform="matrix(-1 0 0 1 865 0)"/><use xlink:href="#f"/><use xlink:href="#f" transform="matrix(-1 0 0 1 865 0)"/><use xlink:href="#g"/><use xlink:href="#g" transform="matrix(-1 0 0 1 865 0)"/><use xlink:href="#h"/><use xlink:href="#h" transform="matrix(-1 0 0 1 865 0)"/><use xlink:href="#i"/></g></svg>