<svg width="883" height="35" xmlns="http://www.w3.org/2000/svg"><g fill="#CE0D0C" stroke="#CE0D0C" stroke-width="2" fill-rule="evenodd" fill-opacity=".3"><path d="M180 1.786H65.557c-1.174 0-2.34.163-3.442.483L9 31l58.333-17.37H170l10-11.844zm523 0h114.443c1.174 0 2.34.163 3.442.483L874 31l-58.333-17.37H713L703 1.785z" fill-rule="nonzero"/><path d="M180 13.632h68l10-11.843h-68zm156 0h68l10-11.843h-68zm78 0h55L459 1.789h-35zM469 1.79h68l10 11.842h-68zM258 13.632h68l10-11.843h-68zm445 0h-68L625 1.789h68zm-78 0h-68L547 1.789h68z"/></g></svg>